<?xml version="1.0" encoding="utf-8"?>
<!-- Generator: Adobe Illustrator 18.1.1, SVG Export Plug-In . SVG Version: 6.00 Build 0)  -->
<svg version="1.1" id="Layer_1" xmlns="http://www.w3.org/2000/svg" xmlns:xlink="http://www.w3.org/1999/xlink" x="0px" y="0px"
	 viewBox="0 0 679 459" enable-background="new 0 0 679 459" xml:space="preserve">
<rect fill="#FEF9DB" width="679" height="459"/>
<g>
	<g>
		<g>
			<g>
				<path fill="#F2AF1A" d="M367.785,198.335c0,0,32.444,2.603,31.576,27.931l-11.028,8.197l-7.795,1.259l-10.149-3.644
					l-8.502-5.465l-5.206-5.985l-3.381-8.413v-8.848l2.862-5.032H367.785z"/>
				<path fill="#FEDD44" d="M378.109,233.814c4.684-2.863,11.448-2.429,11.448-2.429c1.39-3.817,5.814-6.159,5.814-6.159
					c1.387-7.635,8.499-9.369,8.499-9.369c1.734-8.501,7.896-6.419,7.896-6.419c0.435-5.291,6.417-5.184,6.417-5.184
					c6.421-5.703,7.419,1.193,7.419,1.193c-1.821,19.127-16.2,24.658-16.2,24.658c-3.71,4.228-8.046,4.055-8.046,4.055
					c-4.25,3.472-9.713,2.344-9.713,2.344c-5.119,3.122-11.898,0.434-11.898,0.434c-37.271-9.499-27.529-41.117-27.529-41.117
					c3.386-12.491,11.605-21.609,23.421-24.15c23.226-4.996,30.419,7.051,32.401,16.083c3.252,14.832-7.028,20.558-7.028,20.558
					c-1.215,7.026-6.42,7.98-6.42,7.98c-1.473,7.373-7.501,6.072-7.501,6.072c-7.028,6.767-10.67,3.318-10.67,3.318
					c-4.295,1.366-6.833-3.449-6.833-3.449c3.45,3.969,4.569,1.166,4.687,0c0.629-6.332-2.542-12.063-5.964-15.049
					c-7.438-6.484-14.573,0-14.573,0s-0.737,14.269,14.573,22.64C370.627,231.094,378.109,233.814,378.109,233.814z"/>
				<g>
					<path fill="#FFFFFF" d="M351.913,204.668c0,0,0.513-0.412,1.519-0.979c0.503-0.281,1.125-0.613,1.87-0.923
						c0.743-0.32,1.603-0.646,2.577-0.9c0.97-0.264,2.055-0.486,3.228-0.574c1.174-0.089,2.441-0.059,3.741,0.177
						c1.297,0.229,2.623,0.682,3.853,1.364c1.236,0.665,2.368,1.599,3.323,2.598c0.427,0.452,0.921,1.002,1.338,1.529
						c0.438,0.525,0.828,1.09,1.198,1.661c0.738,1.143,1.328,2.365,1.741,3.588c0.114,0.303,0.21,0.608,0.289,0.914
						c0.085,0.304,0.178,0.603,0.243,0.904c0.111,0.605,0.265,1.189,0.318,1.769c0.075,0.576,0.143,1.134,0.157,1.678
						c0.013,0.27,0.022,0.536,0.034,0.796c-0.002,0.261-0.004,0.517-0.007,0.766c0.014,0.999-0.103,1.906-0.173,2.705
						c-0.111,0.796-0.216,1.486-0.327,2.048c-0.243,1.124-0.411,1.754-0.411,1.754s-0.059-0.658-0.107-1.789
						c-0.041-0.562-0.089-1.245-0.147-2.028c-0.101-0.776-0.167-1.651-0.323-2.585c-0.034-0.234-0.07-0.474-0.107-0.716
						c-0.051-0.24-0.102-0.483-0.155-0.732c-0.056-0.247-0.095-0.501-0.155-0.754c-0.063-0.251-0.129-0.507-0.197-0.764
						c-0.116-0.521-0.303-1.031-0.463-1.561c-0.088-0.261-0.197-0.518-0.292-0.782c-0.095-0.264-0.196-0.525-0.323-0.781
						c-0.223-0.523-0.488-1.031-0.761-1.544c-0.296-0.499-0.597-1.003-0.938-1.488c-0.335-0.489-0.704-0.96-1.09-1.427
						c-0.389-0.475-0.766-0.887-1.231-1.37c-0.821-0.876-1.703-1.605-2.685-2.197c-0.977-0.585-2.023-1.025-3.097-1.303
						c-1.074-0.281-2.16-0.427-3.207-0.473c-1.047-0.045-2.058-0.009-2.993,0.084c-1.87,0.197-3.436,0.55-4.528,0.836
						C352.535,204.455,351.913,204.668,351.913,204.668z"/>
					<path fill="#FFFFFF" d="M352.615,194.779c0,0,0.738-0.342,2.111-0.744c0.685-0.195,1.524-0.423,2.507-0.604
						c0.981-0.183,2.099-0.366,3.333-0.44c0.616-0.057,1.263-0.066,1.933-0.089c0.335-0.01,0.678,0.011,1.023,0.02
						c0.345,0.008,0.699,0.021,1.054,0.056c1.431,0.081,2.935,0.324,4.468,0.697c0.763,0.206,1.54,0.42,2.302,0.72
						c0.777,0.253,1.523,0.628,2.284,0.972c0.372,0.193,0.735,0.404,1.107,0.607l0.554,0.309l0.527,0.356l1.055,0.719l0.99,0.805
						l0.496,0.409l0.459,0.444l0.906,0.894c0.293,0.304,0.559,0.637,0.831,0.957c0.265,0.328,0.559,0.631,0.792,0.977
						c0.988,1.341,1.839,2.744,2.516,4.158c0.163,0.357,0.326,0.71,0.486,1.06c0.163,0.349,0.32,0.693,0.435,1.053
						c0.248,0.707,0.491,1.398,0.727,2.07c0.376,1.372,0.745,2.661,0.925,3.881c0.105,0.606,0.227,1.182,0.302,1.735
						c0.056,0.556,0.109,1.083,0.158,1.579c0.046,0.495,0.097,0.955,0.129,1.384c0.013,0.429,0.021,0.823,0.028,1.18
						c0.03,1.423,0.016,2.231,0.016,2.231s-0.212-0.79-0.528-2.164c-0.077-0.342-0.167-0.721-0.262-1.134
						c-0.122-0.405-0.233-0.85-0.364-1.319c-0.126-0.469-0.263-0.969-0.405-1.495c-0.165-0.517-0.341-1.062-0.52-1.629
						c-0.33-1.144-0.848-2.322-1.304-3.589c-0.282-0.609-0.571-1.236-0.868-1.876c-0.287-0.643-0.663-1.252-0.998-1.895l-0.258-0.48
						l-0.296-0.461c-0.199-0.309-0.396-0.62-0.595-0.932c-0.19-0.321-0.416-0.616-0.646-0.911c-0.224-0.298-0.447-0.598-0.671-0.899
						c-0.474-0.584-0.988-1.134-1.494-1.699l-0.815-0.787l-0.411-0.393l-0.439-0.357l-0.874-0.724l-0.931-0.646l-0.464-0.323
						l-0.485-0.286c-0.324-0.19-0.642-0.39-0.968-0.571c-1.328-0.687-2.686-1.276-4.059-1.717c-1.377-0.414-2.735-0.79-4.059-0.987
						c-1.322-0.21-2.591-0.36-3.772-0.421c-2.362-0.138-4.361-0.042-5.763,0.062c-0.697,0.063-1.253,0.109-1.625,0.161
						C352.816,194.752,352.615,194.779,352.615,194.779z"/>
					<path fill="#FFFFFF" d="M356.365,185.862c0,0,0.823-0.343,2.34-0.732c0.758-0.189,1.685-0.408,2.765-0.573
						c1.081-0.168,2.31-0.333,3.66-0.382c0.676-0.044,1.382-0.04,2.116-0.045c0.366-0.006,0.738,0.029,1.117,0.044
						c0.377,0.02,0.763,0.037,1.148,0.083c1.561,0.122,3.197,0.411,4.869,0.83c0.825,0.242,1.674,0.468,2.502,0.803
						c0.843,0.287,1.658,0.678,2.484,1.067c1.618,0.835,3.219,1.806,4.64,3.008c0.741,0.565,1.385,1.237,2.053,1.877
						c0.343,0.311,0.625,0.677,0.928,1.023c0.297,0.349,0.596,0.697,0.89,1.044c0.524,0.741,1.078,1.456,1.545,2.212
						c0.439,0.77,0.928,1.503,1.294,2.278c0.36,0.78,0.756,1.524,1.057,2.289c0.287,0.769,0.563,1.521,0.833,2.254
						c0.445,1.49,0.883,2.895,1.102,4.227c0.131,0.659,0.252,1.293,0.369,1.894c0.073,0.609,0.139,1.186,0.201,1.729
						c0.059,0.54,0.127,1.044,0.168,1.513c0.034,0.468,0.041,0.903,0.058,1.292c0.059,1.558,0.062,2.444,0.062,2.444
						s-0.232-0.865-0.573-2.37c-0.088-0.377-0.175-0.795-0.292-1.244c-0.134-0.447-0.257-0.932-0.4-1.448
						c-0.139-0.515-0.289-1.062-0.447-1.639c-0.187-0.566-0.384-1.163-0.588-1.784c-0.199-0.622-0.403-1.268-0.683-1.912
						c-0.267-0.649-0.505-1.33-0.789-2.013c-0.315-0.668-0.64-1.355-0.972-2.055c-0.35-0.687-0.746-1.367-1.127-2.069
						c-0.18-0.358-0.424-0.68-0.637-1.022c-0.221-0.338-0.442-0.679-0.663-1.021c-0.212-0.352-0.491-0.654-0.734-0.986
						c-0.249-0.328-0.5-0.656-0.75-0.987c-0.276-0.308-0.554-0.617-0.833-0.926c-0.287-0.301-0.54-0.636-0.855-0.912
						c-0.607-0.571-1.192-1.174-1.862-1.676c-1.269-1.097-2.707-1.972-4.145-2.78c-1.463-0.773-2.977-1.394-4.482-1.904
						c-1.521-0.461-3.015-0.881-4.472-1.118c-1.452-0.243-2.847-0.427-4.145-0.512c-2.594-0.188-4.793-0.116-6.327-0.025
						c-0.77,0.058-1.378,0.1-1.788,0.151C356.587,185.837,356.365,185.862,356.365,185.862z"/>
					<path fill="#FFFFFF" d="M364.251,176.936c0,0,0.831-0.278,2.335-0.562c0.755-0.134,1.673-0.293,2.739-0.387
						c1.066-0.102,2.276-0.187,3.601-0.158c1.326-0.002,2.766,0.096,4.282,0.307c1.511,0.212,3.104,0.541,4.717,1.026
						c0.401,0.123,0.802,0.267,1.208,0.407c0.405,0.137,0.811,0.287,1.21,0.464c0.4,0.171,0.804,0.343,1.209,0.515
						c0.394,0.203,0.79,0.405,1.186,0.609c0.194,0.104,0.398,0.201,0.593,0.312l0.573,0.35c0.384,0.236,0.775,0.465,1.149,0.716
						l1.098,0.803c0.182,0.137,0.372,0.264,0.547,0.408l0.517,0.444l1.025,0.899l0.95,0.977c0.658,0.625,1.181,1.366,1.752,2.051
						c0.554,0.7,1.012,1.459,1.504,2.179c0.432,0.754,0.844,1.508,1.242,2.251c0.338,0.771,0.681,1.522,0.992,2.268
						c0.27,0.76,0.515,1.509,0.76,2.232c0.131,0.359,0.222,0.725,0.31,1.085c0.094,0.359,0.188,0.711,0.268,1.06
						c0.083,0.347,0.162,0.69,0.245,1.026c0.057,0.339,0.112,0.673,0.165,1c0.104,0.652,0.207,1.276,0.305,1.87
						c0.069,0.597,0.102,1.167,0.148,1.699c0.041,0.533,0.09,1.029,0.112,1.489c0.028,0.459,0.012,0.886,0.017,1.267
						c0.003,1.53-0.029,2.396-0.029,2.396s-0.196-0.855-0.485-2.339c-0.078-0.371-0.137-0.784-0.248-1.226
						c-0.117-0.441-0.224-0.919-0.35-1.428c-0.127-0.507-0.24-1.051-0.399-1.614c-0.165-0.56-0.34-1.148-0.52-1.763
						c-0.093-0.305-0.185-0.617-0.277-0.936c-0.117-0.311-0.236-0.626-0.355-0.948c-0.249-0.639-0.435-1.323-0.735-1.983
						c-0.291-0.66-0.591-1.338-0.896-2.032c-0.363-0.664-0.708-1.352-1.069-2.044c-0.411-0.661-0.826-1.333-1.249-2.013
						c-0.235-0.321-0.474-0.645-0.712-0.97c-0.24-0.322-0.454-0.669-0.732-0.967c-0.533-0.607-1.029-1.261-1.627-1.822l-0.859-0.875
						l-0.935-0.802l-0.462-0.406c-0.157-0.132-0.327-0.247-0.49-0.372l-0.983-0.735c-0.343-0.223-0.688-0.445-1.03-0.667
						l-0.513-0.331c-0.173-0.107-0.355-0.199-0.529-0.298c-1.399-0.831-2.886-1.446-4.334-2.024
						c-1.47-0.523-2.922-0.979-4.334-1.301c-1.413-0.305-2.767-0.571-4.032-0.728c-2.528-0.338-4.681-0.409-6.189-0.425
						c-0.753,0.004-1.353,0.001-1.757,0.022C364.47,176.928,364.251,176.936,364.251,176.936z"/>
					<path fill="#FFFFFF" d="M376.661,171.569c0,0,0.753-0.114,2.087-0.127c0.665-0.001,1.477,0.002,2.407,0.084
						c0.925,0.072,1.978,0.18,3.106,0.399c1.138,0.193,2.357,0.484,3.63,0.866c1.271,0.399,2.592,0.888,3.913,1.516
						c1.316,0.637,2.655,1.368,3.911,2.275c0.644,0.431,1.248,0.927,1.855,1.426c0.312,0.24,0.581,0.53,0.875,0.793
						c0.282,0.275,0.588,0.528,0.853,0.824c0.527,0.589,1.086,1.15,1.552,1.787l0.722,0.931c0.217,0.328,0.431,0.654,0.643,0.979
						c0.447,0.638,0.798,1.325,1.156,1.996l0.265,0.501l0.23,0.514c0.149,0.343,0.295,0.684,0.44,1.021
						c0.547,1.364,0.972,2.719,1.256,4.022c0.168,0.647,0.274,1.285,0.359,1.904c0.08,0.621,0.202,1.21,0.225,1.789
						c0.04,0.575,0.078,1.125,0.114,1.648c0.044,0.52,0.005,1.02,0.008,1.485c-0.008,0.931-0.024,1.738-0.112,2.401
						c-0.131,1.326-0.235,2.072-0.235,2.072s-0.121-0.756-0.282-2.059c-0.056-0.654-0.223-1.437-0.361-2.333
						c-0.124-0.898-0.381-1.89-0.604-2.971c-0.1-0.544-0.294-1.088-0.452-1.658c-0.08-0.286-0.16-0.575-0.243-0.869
						c-0.08-0.293-0.201-0.58-0.301-0.876c-0.394-1.189-0.899-2.401-1.48-3.617c-0.6-1.208-1.275-2.421-2.084-3.569
						c-0.202-0.288-0.403-0.577-0.605-0.866l-0.667-0.826c-0.424-0.57-0.939-1.066-1.412-1.596c-0.998-1.015-2.06-1.974-3.197-2.809
						c-1.114-0.861-2.305-1.594-3.48-2.27c-1.183-0.661-2.374-1.229-3.527-1.728c-1.161-0.477-2.273-0.92-3.327-1.259
						c-2.102-0.696-3.919-1.132-5.201-1.411c-0.642-0.129-1.149-0.24-1.502-0.294C376.848,171.601,376.661,171.569,376.661,171.569z
						"/>
					<path fill="#FFFFFF" d="M391.803,236.059c0,0,0.104-0.158,0.291-0.435c0.177-0.276,0.43-0.655,0.694-1.123
						c0.144-0.225,0.272-0.484,0.424-0.742c0.136-0.271,0.29-0.543,0.425-0.837c0.138-0.293,0.281-0.589,0.403-0.902
						c0.141-0.305,0.247-0.627,0.361-0.947c0.134-0.312,0.192-0.649,0.309-0.965c0.08-0.328,0.163-0.649,0.24-0.96
						c0.075-0.315,0.116-0.626,0.185-0.921c0.078-0.295,0.083-0.581,0.135-0.848c0.035-0.266,0.102-0.514,0.113-0.734
						c0.017-0.221,0.049-0.418,0.07-0.58c0.047-0.327,0.093-0.522,0.093-0.522s0.087,0.169,0.216,0.48
						c0.064,0.155,0.141,0.344,0.217,0.567c0.089,0.222,0.133,0.479,0.193,0.762c0.047,0.284,0.132,0.595,0.137,0.926
						c0.012,0.333,0.038,0.688,0.018,1.054c-0.04,0.363-0.062,0.745-0.145,1.123c-0.09,0.375-0.162,0.765-0.306,1.133
						c-0.142,0.368-0.274,0.739-0.469,1.076c-0.165,0.35-0.376,0.667-0.585,0.97c-0.207,0.303-0.445,0.566-0.666,0.818
						c-0.238,0.236-0.457,0.46-0.688,0.642c-0.221,0.188-0.444,0.335-0.641,0.463c-0.197,0.132-0.38,0.224-0.53,0.302
						C391.991,236.008,391.803,236.059,391.803,236.059z"/>
					<path fill="#FFFFFF" d="M401.355,233.902c0,0,0.137-0.268,0.348-0.737c0.209-0.473,0.506-1.14,0.807-1.949
						c0.163-0.4,0.294-0.851,0.467-1.31c0.143-0.469,0.296-0.961,0.435-1.475c0.129-0.515,0.277-1.042,0.374-1.589
						c0.129-0.542,0.214-1.097,0.291-1.654c0.112-0.553,0.112-1.119,0.185-1.669c0.056-0.552,0.038-1.099,0.075-1.63
						c0.019-0.53-0.022-1.045-0.02-1.536c0.007-0.494-0.064-0.954-0.087-1.387c-0.016-0.216-0.032-0.424-0.047-0.622
						c-0.004-0.201-0.024-0.388-0.056-0.561c-0.054-0.351-0.085-0.661-0.116-0.918c-0.059-0.516-0.078-0.819-0.078-0.819
						s0.147,0.259,0.374,0.73c0.114,0.235,0.255,0.523,0.398,0.86c0.17,0.33,0.268,0.731,0.403,1.161
						c0.129,0.434,0.302,0.9,0.366,1.417c0.078,0.512,0.215,1.053,0.243,1.622c0.015,0.285,0.032,0.575,0.046,0.869
						c0.015,0.294,0.037,0.591,0.008,0.891c-0.039,0.598-0.039,1.212-0.15,1.814l-0.15,0.902c-0.05,0.3-0.144,0.59-0.212,0.881
						c-0.136,0.586-0.342,1.14-0.539,1.674c-0.197,0.535-0.447,1.027-0.676,1.495c-0.244,0.46-0.48,0.891-0.741,1.264
						c-0.237,0.385-0.495,0.712-0.719,1c-0.229,0.29-0.444,0.525-0.626,0.715C401.597,233.72,401.355,233.902,401.355,233.902z"/>
					<path fill="#FFFFFF" d="M409.488,229.844c0,0,0.115-0.311,0.311-0.856c0.189-0.544,0.452-1.317,0.729-2.249
						c0.146-0.462,0.27-0.974,0.422-1.503c0.146-0.533,0.268-1.104,0.406-1.686c0.109-0.59,0.265-1.188,0.353-1.81
						c0.053-0.309,0.106-0.62,0.16-0.934l0.114-0.945c0.102-0.628,0.125-1.262,0.179-1.887c0.071-0.624,0.046-1.239,0.073-1.837
						c0.041-0.599-0.01-1.175-0.012-1.727c-0.003-0.554-0.044-1.072-0.088-1.556c-0.051-0.48-0.051-0.934-0.103-1.325
						c-0.061-0.391-0.096-0.739-0.132-1.025c-0.065-0.573-0.087-0.912-0.087-0.912s0.152,0.295,0.389,0.829
						c0.116,0.266,0.262,0.592,0.412,0.971c0.152,0.378,0.265,0.823,0.406,1.307c0.068,0.243,0.136,0.496,0.211,0.758
						c0.07,0.264,0.097,0.543,0.15,0.828c0.083,0.57,0.226,1.173,0.238,1.805c0.029,0.63,0.104,1.285,0.056,1.949
						c-0.02,0.664-0.046,1.34-0.145,2.009c-0.043,0.334-0.09,0.668-0.134,1.001c-0.068,0.329-0.136,0.657-0.204,0.982
						c-0.121,0.653-0.33,1.273-0.503,1.878c-0.196,0.599-0.415,1.169-0.639,1.7c-0.227,0.531-0.454,1.025-0.699,1.466
						c-0.222,0.45-0.47,0.839-0.683,1.186c-0.217,0.345-0.423,0.634-0.596,0.869C409.727,229.605,409.488,229.844,409.488,229.844z"
						/>
					<path fill="#FFFFFF" d="M416.755,225.009c0,0,0.106-0.321,0.292-0.884c0.094-0.277,0.185-0.624,0.315-1.008
						c0.114-0.39,0.24-0.827,0.381-1.307c0.132-0.479,0.27-0.997,0.406-1.546c0.15-0.545,0.252-1.133,0.391-1.729
						c0.129-0.598,0.226-1.224,0.345-1.853c0.044-0.316,0.085-0.636,0.129-0.956c0.051-0.321,0.096-0.642,0.111-0.965
						c0.059-0.645,0.129-1.289,0.129-1.925c0.008-0.319,0.02-0.634,0.034-0.947c-0.009-0.311-0.021-0.618-0.034-0.922
						c-0.005-0.303-0.02-0.602-0.02-0.896c-0.028-0.291-0.061-0.575-0.087-0.854c-0.061-0.555-0.097-1.088-0.204-1.567
						c-0.098-0.481-0.158-0.932-0.229-1.332c-0.111-0.386-0.191-0.732-0.263-1.017c-0.138-0.571-0.204-0.912-0.204-0.912
						s0.188,0.279,0.491,0.794c0.15,0.256,0.338,0.57,0.54,0.939c0.169,0.378,0.344,0.815,0.531,1.3
						c0.085,0.244,0.206,0.49,0.275,0.759c0.068,0.27,0.137,0.551,0.209,0.838c0.07,0.289,0.144,0.587,0.216,0.89
						c0.051,0.309,0.086,0.625,0.127,0.947c0.041,0.323,0.082,0.652,0.111,0.985c0.008,0.333,0.013,0.672,0.02,1.013
						c0.036,0.684-0.034,1.374-0.09,2.062c-0.047,0.692-0.199,1.367-0.306,2.037c-0.064,0.333-0.153,0.657-0.233,0.98
						c-0.085,0.32-0.15,0.642-0.263,0.946c-0.194,0.613-0.394,1.202-0.624,1.744c-0.204,0.55-0.449,1.051-0.678,1.508
						c-0.219,0.463-0.464,0.866-0.668,1.226c-0.217,0.356-0.41,0.662-0.583,0.904C416.985,224.754,416.755,225.009,416.755,225.009z
						"/>
				</g>
			</g>
			<g>
				<path fill="#F2AF1A" d="M311.213,198.335c0,0-32.442,2.603-31.574,27.931l11.028,8.198l7.795,1.258l10.149-3.644l8.502-5.465
					l5.206-5.985l3.381-8.413v-8.848l-2.862-5.032H311.213z"/>
				<path fill="#FEDD44" d="M300.891,233.814c-4.684-2.863-11.448-2.429-11.448-2.429c-1.39-3.817-5.814-6.159-5.814-6.159
					c-1.387-7.635-8.499-9.369-8.499-9.369c-1.734-8.501-7.895-6.419-7.895-6.419c-0.434-5.291-6.418-5.184-6.418-5.184
					c-6.421-5.703-7.419,1.193-7.419,1.193c1.824,19.127,16.2,24.658,16.2,24.658c3.71,4.228,8.046,4.055,8.046,4.055
					c4.25,3.472,9.716,2.344,9.716,2.344c5.115,3.122,11.898,0.434,11.898,0.434c37.269-9.499,27.526-41.117,27.526-41.117
					c-3.386-12.491-11.605-21.609-23.421-24.15c-23.226-4.996-30.419,7.051-32.4,16.083c-3.253,14.832,7.027,20.558,7.027,20.558
					c1.215,7.026,6.418,7.98,6.418,7.98c1.475,7.373,7.503,6.072,7.503,6.072c7.025,6.767,10.67,3.318,10.67,3.318
					c4.295,1.366,6.833-3.449,6.833-3.449c-3.45,3.969-4.569,1.166-4.687,0c-0.626-6.332,2.542-12.063,5.964-15.049
					c7.441-6.484,14.573,0,14.573,0s0.737,14.269-14.573,22.64C308.373,231.094,300.891,233.814,300.891,233.814z"/>
				<g>
					<path fill="#FFFFFF" d="M327.087,204.668c0,0-0.513-0.412-1.519-0.979c-0.503-0.281-1.125-0.613-1.87-0.923
						c-0.743-0.32-1.603-0.646-2.577-0.9c-0.972-0.264-2.055-0.486-3.228-0.574c-1.174-0.089-2.441-0.059-3.741,0.177
						c-1.295,0.229-2.623,0.682-3.853,1.364c-1.236,0.665-2.365,1.599-3.323,2.598c-0.427,0.452-0.92,1.002-1.338,1.529
						c-0.438,0.525-0.828,1.09-1.195,1.661c-0.741,1.143-1.331,2.365-1.744,3.588c-0.114,0.303-0.209,0.608-0.289,0.914
						c-0.085,0.304-0.178,0.603-0.243,0.904c-0.112,0.605-0.265,1.189-0.315,1.769c-0.078,0.576-0.145,1.134-0.16,1.678
						c-0.01,0.27-0.022,0.536-0.034,0.796c0.003,0.261,0.004,0.517,0.01,0.766c-0.017,0.999,0.1,1.906,0.17,2.705
						c0.111,0.796,0.216,1.486,0.327,2.048c0.243,1.124,0.411,1.754,0.411,1.754s0.059-0.658,0.105-1.789
						c0.044-0.562,0.093-1.245,0.15-2.028c0.098-0.776,0.167-1.651,0.323-2.585c0.034-0.234,0.071-0.474,0.109-0.716
						c0.049-0.24,0.103-0.483,0.153-0.732c0.056-0.247,0.095-0.501,0.155-0.754c0.063-0.251,0.129-0.507,0.197-0.764
						c0.116-0.521,0.303-1.031,0.463-1.561c0.088-0.261,0.197-0.518,0.292-0.782c0.095-0.264,0.199-0.525,0.323-0.781
						c0.223-0.523,0.487-1.031,0.761-1.544c0.296-0.499,0.597-1.003,0.938-1.488c0.335-0.489,0.704-0.96,1.09-1.427
						c0.389-0.475,0.767-0.887,1.232-1.37c0.82-0.876,1.703-1.605,2.684-2.197c0.977-0.585,2.026-1.025,3.1-1.303
						c1.071-0.281,2.155-0.427,3.204-0.473c1.047-0.045,2.058-0.009,2.993,0.084c1.87,0.197,3.436,0.55,4.528,0.836
						C326.465,204.455,327.087,204.668,327.087,204.668z"/>
					<path fill="#FFFFFF" d="M326.385,194.779c0,0-0.738-0.342-2.108-0.744c-0.688-0.195-1.525-0.423-2.51-0.604
						c-0.98-0.183-2.099-0.366-3.335-0.44c-0.614-0.057-1.261-0.066-1.931-0.089c-0.336-0.01-0.676,0.011-1.023,0.02
						c-0.347,0.008-0.696,0.021-1.054,0.056c-1.431,0.081-2.935,0.324-4.468,0.697c-0.765,0.206-1.54,0.42-2.302,0.72
						c-0.777,0.253-1.521,0.628-2.284,0.972c-0.368,0.193-0.736,0.404-1.107,0.607l-0.554,0.309l-0.527,0.356l-1.052,0.719
						l-0.996,0.805l-0.493,0.409l-0.459,0.444l-0.909,0.894c-0.293,0.304-0.556,0.637-0.828,0.957
						c-0.262,0.328-0.559,0.631-0.792,0.977c-0.988,1.341-1.836,2.744-2.516,4.158c-0.163,0.357-0.325,0.71-0.486,1.06
						c-0.163,0.349-0.32,0.693-0.435,1.053c-0.248,0.707-0.488,1.398-0.727,2.07c-0.376,1.372-0.745,2.661-0.926,3.881
						c-0.103,0.606-0.226,1.182-0.301,1.735c-0.057,0.556-0.107,1.083-0.158,1.579c-0.046,0.495-0.097,0.955-0.129,1.384
						c-0.012,0.429-0.022,0.823-0.028,1.18c-0.03,1.423-0.016,2.231-0.016,2.231s0.212-0.79,0.528-2.164
						c0.077-0.342,0.167-0.721,0.262-1.134c0.122-0.405,0.233-0.85,0.364-1.319c0.126-0.469,0.263-0.969,0.405-1.495
						c0.165-0.517,0.341-1.062,0.522-1.629c0.328-1.144,0.846-2.322,1.302-3.589c0.282-0.609,0.571-1.236,0.868-1.876
						c0.289-0.643,0.663-1.252,0.998-1.895l0.257-0.48l0.3-0.461c0.196-0.309,0.396-0.62,0.592-0.932
						c0.192-0.321,0.416-0.616,0.646-0.911c0.224-0.298,0.447-0.598,0.674-0.899c0.471-0.584,0.985-1.134,1.491-1.699l0.815-0.787
						l0.411-0.393l0.442-0.357l0.871-0.724l0.931-0.646l0.464-0.323l0.485-0.286c0.324-0.19,0.642-0.39,0.97-0.571
						c1.326-0.687,2.684-1.276,4.057-1.717c1.378-0.414,2.735-0.79,4.062-0.987c1.319-0.21,2.59-0.36,3.77-0.421
						c2.363-0.138,4.36-0.042,5.762,0.062c0.697,0.063,1.254,0.109,1.628,0.161C326.184,194.752,326.385,194.779,326.385,194.779z"
						/>
					<path fill="#FFFFFF" d="M322.635,185.862c0,0-0.823-0.343-2.34-0.732c-0.758-0.189-1.685-0.408-2.765-0.573
						c-1.08-0.168-2.31-0.333-3.66-0.382c-0.679-0.044-1.383-0.04-2.116-0.045c-0.366-0.006-0.738,0.029-1.115,0.044
						c-0.379,0.02-0.765,0.037-1.15,0.083c-1.561,0.122-3.197,0.411-4.869,0.83c-0.825,0.242-1.674,0.468-2.502,0.803
						c-0.843,0.287-1.658,0.678-2.484,1.067c-1.618,0.835-3.219,1.806-4.64,3.008c-0.739,0.565-1.385,1.237-2.051,1.877
						c-0.345,0.311-0.624,0.677-0.93,1.023c-0.297,0.349-0.594,0.697-0.89,1.044c-0.524,0.741-1.078,1.456-1.544,2.212
						c-0.44,0.77-0.927,1.503-1.295,2.278c-0.357,0.78-0.756,1.524-1.057,2.289c-0.284,0.769-0.564,1.521-0.834,2.254
						c-0.444,1.49-0.882,2.895-1.101,4.227c-0.128,0.659-0.252,1.293-0.371,1.894c-0.071,0.609-0.137,1.186-0.196,1.729
						c-0.064,0.54-0.127,1.044-0.171,1.513c-0.034,0.468-0.039,0.903-0.058,1.292c-0.059,1.558-0.062,2.444-0.062,2.444
						s0.232-0.865,0.573-2.37c0.09-0.377,0.175-0.795,0.292-1.244c0.134-0.447,0.258-0.932,0.4-1.448
						c0.141-0.515,0.289-1.062,0.447-1.639c0.188-0.566,0.384-1.163,0.587-1.784c0.2-0.622,0.404-1.268,0.684-1.912
						c0.267-0.649,0.505-1.33,0.789-2.013c0.315-0.668,0.64-1.355,0.97-2.055c0.352-0.687,0.748-1.367,1.129-2.069
						c0.18-0.358,0.423-0.68,0.637-1.022c0.222-0.338,0.442-0.679,0.663-1.021c0.211-0.352,0.493-0.654,0.734-0.986
						c0.249-0.328,0.5-0.656,0.75-0.987c0.276-0.308,0.554-0.617,0.833-0.926c0.287-0.301,0.542-0.636,0.855-0.912
						c0.607-0.571,1.193-1.174,1.863-1.676c1.268-1.097,2.706-1.972,4.143-2.78c1.463-0.773,2.977-1.394,4.483-1.904
						c1.521-0.461,3.015-0.881,4.472-1.118c1.452-0.243,2.847-0.427,4.145-0.512c2.596-0.188,4.793-0.116,6.327-0.025
						c0.77,0.058,1.378,0.1,1.788,0.151C322.413,185.837,322.635,185.862,322.635,185.862z"/>
					<path fill="#FFFFFF" d="M314.75,176.936c0,0-0.832-0.278-2.336-0.562c-0.752-0.134-1.673-0.293-2.739-0.387
						c-1.066-0.102-2.275-0.187-3.601-0.158c-1.326-0.002-2.767,0.096-4.279,0.307c-1.517,0.212-3.105,0.541-4.72,1.026
						c-0.401,0.123-0.803,0.267-1.207,0.407c-0.406,0.137-0.812,0.287-1.211,0.464c-0.4,0.171-0.804,0.343-1.209,0.515
						c-0.392,0.203-0.787,0.405-1.184,0.609c-0.196,0.104-0.398,0.201-0.595,0.312l-0.573,0.35
						c-0.384,0.236-0.775,0.465-1.149,0.716l-1.098,0.803c-0.182,0.137-0.369,0.264-0.547,0.408l-0.517,0.444l-1.025,0.899
						l-0.95,0.977c-0.658,0.625-1.181,1.366-1.752,2.051c-0.554,0.7-1.012,1.459-1.504,2.179c-0.432,0.754-0.844,1.508-1.242,2.251
						c-0.338,0.771-0.681,1.522-0.991,2.268c-0.271,0.76-0.516,1.509-0.761,2.232c-0.131,0.359-0.222,0.725-0.313,1.085
						c-0.091,0.359-0.185,0.711-0.265,1.06c-0.083,0.347-0.162,0.69-0.243,1.026c-0.059,0.339-0.114,0.673-0.168,1
						c-0.107,0.652-0.206,1.276-0.306,1.87c-0.067,0.597-0.1,1.167-0.145,1.699c-0.041,0.533-0.09,1.029-0.112,1.489
						c-0.028,0.459-0.012,0.886-0.017,1.267c-0.003,1.53,0.029,2.396,0.029,2.396s0.196-0.855,0.485-2.339
						c0.076-0.371,0.137-0.784,0.248-1.226c0.117-0.441,0.224-0.919,0.351-1.428c0.125-0.507,0.239-1.051,0.398-1.614
						c0.165-0.56,0.34-1.148,0.519-1.763c0.093-0.305,0.186-0.617,0.277-0.936c0.117-0.311,0.236-0.626,0.355-0.948
						c0.249-0.639,0.435-1.323,0.735-1.983c0.291-0.66,0.591-1.338,0.898-2.032c0.36-0.664,0.705-1.352,1.066-2.044
						c0.411-0.661,0.826-1.333,1.249-2.013c0.236-0.321,0.474-0.645,0.712-0.97c0.243-0.322,0.454-0.669,0.732-0.967
						c0.533-0.607,1.029-1.261,1.625-1.822l0.861-0.875l0.936-0.802l0.462-0.406c0.157-0.132,0.327-0.247,0.49-0.372l0.984-0.735
						c0.345-0.223,0.686-0.445,1.027-0.667l0.513-0.331c0.175-0.107,0.357-0.199,0.531-0.298c1.399-0.831,2.887-1.446,4.334-2.024
						c1.47-0.523,2.922-0.979,4.334-1.301c1.413-0.305,2.767-0.571,4.03-0.728c2.53-0.338,4.683-0.409,6.191-0.425
						c0.753,0.004,1.353,0.001,1.757,0.022C314.533,176.928,314.75,176.936,314.75,176.936z"/>
					<path fill="#FFFFFF" d="M302.339,171.569c0,0-0.753-0.114-2.087-0.127c-0.665-0.001-1.477,0.002-2.404,0.084
						c-0.928,0.072-1.979,0.18-3.109,0.399c-1.138,0.193-2.357,0.484-3.632,0.866c-1.266,0.399-2.589,0.888-3.911,1.516
						c-1.316,0.637-2.655,1.368-3.909,2.275c-0.646,0.431-1.25,0.927-1.857,1.426c-0.311,0.24-0.581,0.53-0.875,0.793
						c-0.281,0.275-0.588,0.528-0.853,0.824c-0.527,0.589-1.086,1.15-1.552,1.787l-0.724,0.931
						c-0.211,0.328-0.429,0.654-0.642,0.979c-0.447,0.638-0.798,1.325-1.154,1.996l-0.267,0.501l-0.232,0.514
						c-0.147,0.343-0.294,0.684-0.439,1.021c-0.546,1.364-0.97,2.719-1.254,4.022c-0.172,0.647-0.276,1.285-0.361,1.904
						c-0.08,0.621-0.202,1.21-0.224,1.789c-0.042,0.575-0.08,1.125-0.116,1.648c-0.044,0.52-0.005,1.02-0.008,1.485
						c0.008,0.931,0.026,1.738,0.112,2.401c0.131,1.326,0.235,2.072,0.235,2.072s0.121-0.756,0.282-2.059
						c0.056-0.654,0.224-1.437,0.363-2.333c0.122-0.898,0.379-1.89,0.602-2.971c0.101-0.544,0.297-1.088,0.452-1.658
						c0.08-0.286,0.16-0.575,0.243-0.869c0.08-0.293,0.201-0.58,0.301-0.876c0.393-1.189,0.898-2.401,1.479-3.617
						c0.598-1.208,1.275-2.421,2.085-3.569c0.201-0.288,0.402-0.577,0.604-0.866l0.668-0.826c0.423-0.57,0.938-1.066,1.413-1.596
						c0.996-1.015,2.058-1.974,3.195-2.809c1.114-0.861,2.305-1.594,3.48-2.27c1.183-0.661,2.374-1.229,3.527-1.728
						c1.161-0.477,2.273-0.92,3.327-1.259c2.103-0.696,3.919-1.132,5.201-1.411c0.644-0.129,1.151-0.24,1.502-0.294
						C302.152,171.601,302.339,171.569,302.339,171.569z"/>
					<path fill="#FFFFFF" d="M287.197,236.06c0,0-0.106-0.159-0.291-0.436c-0.177-0.276-0.43-0.655-0.694-1.123
						c-0.143-0.224-0.272-0.484-0.423-0.742c-0.137-0.271-0.289-0.543-0.426-0.837c-0.136-0.293-0.281-0.589-0.403-0.902
						c-0.138-0.305-0.247-0.627-0.361-0.947c-0.134-0.312-0.192-0.649-0.309-0.965c-0.08-0.328-0.163-0.649-0.243-0.96
						c-0.07-0.315-0.113-0.626-0.18-0.921c-0.078-0.295-0.084-0.581-0.137-0.848c-0.033-0.266-0.102-0.514-0.113-0.734
						c-0.017-0.221-0.049-0.418-0.07-0.58c-0.046-0.327-0.093-0.522-0.093-0.522s-0.087,0.169-0.216,0.48
						c-0.064,0.155-0.141,0.344-0.217,0.567c-0.089,0.222-0.133,0.479-0.193,0.762c-0.046,0.284-0.134,0.595-0.137,0.926
						c-0.012,0.333-0.038,0.688-0.018,1.054c0.04,0.363,0.062,0.745,0.142,1.123c0.095,0.375,0.165,0.765,0.309,1.133
						c0.141,0.368,0.274,0.739,0.469,1.076c0.165,0.35,0.376,0.667,0.585,0.97c0.207,0.303,0.444,0.566,0.667,0.818
						c0.234,0.236,0.456,0.462,0.687,0.642c0.221,0.188,0.444,0.336,0.642,0.465c0.196,0.13,0.379,0.222,0.529,0.3
						C287.009,236.008,287.197,236.06,287.197,236.06z"/>
					<path fill="#FFFFFF" d="M277.644,233.902c0,0-0.137-0.268-0.348-0.737c-0.209-0.473-0.506-1.14-0.808-1.949
						c-0.162-0.4-0.293-0.851-0.466-1.31c-0.143-0.469-0.296-0.961-0.435-1.475c-0.126-0.515-0.276-1.042-0.374-1.589
						c-0.129-0.542-0.214-1.097-0.291-1.654c-0.112-0.553-0.112-1.119-0.185-1.669c-0.056-0.552-0.038-1.099-0.075-1.63
						c-0.022-0.53,0.022-1.045,0.02-1.536c-0.005-0.494,0.061-0.954,0.087-1.387c0.018-0.216,0.032-0.424,0.047-0.622
						c0.004-0.201,0.024-0.388,0.057-0.561c0.052-0.351,0.087-0.661,0.115-0.918c0.059-0.516,0.078-0.819,0.078-0.819
						s-0.147,0.259-0.374,0.73c-0.114,0.235-0.255,0.523-0.398,0.86c-0.17,0.33-0.267,0.731-0.405,1.161
						c-0.127,0.434-0.3,0.9-0.364,1.417c-0.081,0.512-0.215,1.053-0.243,1.622c-0.015,0.285-0.031,0.575-0.046,0.869
						c-0.015,0.294-0.037,0.591-0.01,0.891c0.041,0.598,0.041,1.212,0.155,1.814l0.145,0.902c0.052,0.3,0.146,0.59,0.217,0.881
						c0.133,0.586,0.34,1.14,0.536,1.674c0.197,0.535,0.449,1.027,0.676,1.495c0.245,0.46,0.48,0.891,0.741,1.264
						c0.237,0.385,0.495,0.712,0.719,1c0.229,0.29,0.444,0.525,0.627,0.715C277.403,233.72,277.644,233.902,277.644,233.902z"/>
					<path fill="#FFFFFF" d="M269.512,229.844c0,0-0.115-0.311-0.312-0.856c-0.189-0.544-0.452-1.317-0.729-2.249
						c-0.146-0.462-0.27-0.974-0.422-1.503c-0.143-0.533-0.267-1.104-0.406-1.686c-0.109-0.59-0.267-1.188-0.352-1.81
						c-0.054-0.309-0.107-0.62-0.16-0.934l-0.115-0.945c-0.102-0.628-0.126-1.262-0.179-1.887c-0.071-0.624-0.046-1.239-0.076-1.837
						c-0.036-0.599,0.013-1.175,0.018-1.727c0-0.554,0.041-1.072,0.085-1.556c0.051-0.48,0.051-0.934,0.104-1.325
						c0.061-0.391,0.098-0.739,0.131-1.025c0.065-0.573,0.088-0.912,0.088-0.912s-0.153,0.295-0.39,0.829
						c-0.115,0.266-0.262,0.592-0.412,0.971c-0.152,0.378-0.267,0.823-0.406,1.307c-0.065,0.243-0.135,0.496-0.208,0.758
						c-0.073,0.264-0.1,0.543-0.15,0.828c-0.086,0.57-0.229,1.173-0.241,1.805c-0.029,0.63-0.104,1.285-0.056,1.949
						c0.02,0.664,0.046,1.34,0.146,2.009c0.043,0.334,0.088,0.668,0.137,1.001c0.065,0.329,0.134,0.657,0.201,0.982
						c0.121,0.653,0.33,1.273,0.503,1.878c0.199,0.599,0.415,1.169,0.639,1.7c0.227,0.531,0.457,1.025,0.699,1.466
						c0.222,0.45,0.47,0.839,0.683,1.186c0.217,0.345,0.423,0.634,0.598,0.869C269.275,229.605,269.512,229.844,269.512,229.844z"/>
					<path fill="#FFFFFF" d="M262.245,225.009c0,0-0.106-0.321-0.291-0.884c-0.098-0.277-0.188-0.624-0.316-1.008
						c-0.114-0.39-0.24-0.827-0.379-1.307c-0.134-0.479-0.272-0.997-0.408-1.546c-0.15-0.545-0.252-1.133-0.391-1.729
						c-0.128-0.598-0.227-1.224-0.345-1.853c-0.042-0.316-0.085-0.636-0.129-0.956c-0.051-0.321-0.095-0.642-0.111-0.965
						c-0.059-0.645-0.129-1.289-0.129-1.925c-0.008-0.319-0.02-0.634-0.034-0.947c0.009-0.311,0.021-0.618,0.031-0.922
						c0.008-0.303,0.022-0.602,0.022-0.896c0.031-0.291,0.061-0.575,0.09-0.854c0.058-0.555,0.094-1.088,0.201-1.567
						c0.098-0.481,0.158-0.932,0.229-1.332c0.111-0.386,0.191-0.732,0.263-1.017c0.138-0.571,0.206-0.912,0.206-0.912
						s-0.189,0.279-0.493,0.794c-0.15,0.256-0.34,0.57-0.54,0.939c-0.169,0.378-0.347,0.815-0.531,1.3
						c-0.085,0.244-0.206,0.49-0.274,0.759c-0.068,0.27-0.136,0.551-0.209,0.838c-0.07,0.289-0.144,0.587-0.216,0.89
						c-0.051,0.309-0.086,0.625-0.129,0.947c-0.039,0.323-0.081,0.652-0.109,0.985c-0.008,0.333-0.013,0.672-0.02,1.013
						c-0.036,0.684,0.037,1.374,0.09,2.062c0.046,0.692,0.196,1.367,0.306,2.037c0.064,0.333,0.155,0.657,0.233,0.98
						c0.086,0.32,0.15,0.642,0.26,0.946c0.197,0.613,0.397,1.202,0.627,1.744c0.204,0.55,0.449,1.051,0.678,1.508
						c0.219,0.463,0.464,0.866,0.668,1.226c0.217,0.356,0.408,0.662,0.583,0.904C262.015,224.754,262.245,225.009,262.245,225.009z"
						/>
				</g>
			</g>
		</g>
		<g>
			<g>
				<g>
					<g>
						<path fill="#F2AF1A" d="M251.156,171.056c0,0,0.141-0.302,0.457-0.839c0.32-0.532,0.782-1.328,1.462-2.274
							c0.666-0.96,1.535-2.08,2.604-3.314c1.059-1.241,2.354-2.553,3.825-3.935c1.5-1.347,3.185-2.758,5.09-4.096
							c1.904-1.33,3.988-2.655,6.27-3.806c2.257-1.198,4.708-2.213,7.248-3.102c1.288-0.391,2.565-0.869,3.899-1.16l1.991-0.491
							l2.017-0.388c2.696-0.49,5.427-0.743,8.113-0.834c1.344-0.043,2.678,0.007,3.991,0.031c1.31,0.08,2.602,0.188,3.87,0.308
							c1.261,0.169,2.497,0.353,3.699,0.555c1.203,0.21,2.361,0.499,3.488,0.755c1.132,0.244,2.206,0.588,3.243,0.904
							c1.035,0.334,2.042,0.604,2.974,0.992c0.933,0.366,1.823,0.717,2.674,1.05c0.85,0.324,1.621,0.729,2.354,1.072
							c1.46,0.708,2.727,1.316,3.717,1.933c1.006,0.582,1.776,1.075,2.305,1.393c0.523,0.333,0.803,0.51,0.803,0.51
							s-0.328-0.062-0.938-0.179c-0.607-0.129-1.504-0.295-2.616-0.552c-1.105-0.276-2.478-0.506-4.023-0.813
							c-1.537-0.344-3.296-0.592-5.184-0.911c-0.94-0.183-1.936-0.276-2.956-0.407c-1.02-0.119-2.062-0.305-3.148-0.359
							c-1.086-0.07-2.187-0.227-3.318-0.271c-1.134-0.025-2.286-0.117-3.457-0.146c-1.166,0.001-2.354,0.003-3.556,0.005
							c-0.598,0.031-1.2,0.062-1.805,0.094c-0.605,0.032-1.213,0.022-1.82,0.087c-2.426,0.219-4.89,0.454-7.311,0.929l-1.823,0.321
							l-1.799,0.419c-1.203,0.255-2.376,0.607-3.554,0.917c-0.589,0.155-1.154,0.373-1.734,0.546
							c-0.574,0.185-1.157,0.337-1.716,0.556c-1.122,0.409-2.239,0.801-3.315,1.25c-2.172,0.856-4.222,1.823-6.151,2.793
							c-1.931,0.971-3.709,1.999-5.351,2.971c-1.62,1-3.11,1.945-4.393,2.844c-1.29,0.89-2.402,1.701-3.306,2.393
							c-0.906,0.691-1.62,1.244-2.092,1.641C251.409,170.845,251.156,171.056,251.156,171.056z"/>
					</g>
				</g>
				<g>
					<g>
						<path fill="#F2AF1A" d="M427.844,171.056c0,0-0.253-0.211-0.729-0.608c-0.472-0.397-1.186-0.95-2.09-1.641
							c-0.902-0.691-2.018-1.502-3.308-2.393c-1.282-0.899-2.772-1.844-4.392-2.844c-1.643-0.973-3.421-2-5.352-2.971
							c-1.93-0.97-3.98-1.937-6.151-2.793c-1.076-0.448-2.193-0.84-3.315-1.25c-0.559-0.218-1.143-0.371-1.715-0.556
							c-0.578-0.173-1.146-0.391-1.734-0.546c-1.179-0.311-2.352-0.663-3.554-0.917l-1.8-0.419l-1.822-0.321
							c-2.422-0.475-4.886-0.71-7.312-0.929c-0.606-0.065-1.214-0.055-1.819-0.087c-0.604-0.031-1.207-0.062-1.805-0.094
							c-1.202-0.002-2.39-0.003-3.556-0.005c-1.171,0.029-2.323,0.121-3.457,0.146c-1.133,0.044-2.232,0.201-3.318,0.271
							c-1.086,0.055-2.128,0.24-3.148,0.359c-1.021,0.131-2.016,0.224-2.956,0.407c-1.888,0.319-3.646,0.567-5.184,0.911
							c-1.545,0.307-2.917,0.537-4.023,0.813c-1.112,0.257-2.009,0.423-2.613,0.552c-0.612,0.117-0.94,0.179-0.94,0.179
							s0.279-0.177,0.803-0.51c0.528-0.318,1.299-0.811,2.305-1.393c0.99-0.617,2.257-1.224,3.717-1.933
							c0.732-0.343,1.504-0.748,2.354-1.072c0.85-0.333,1.742-0.685,2.674-1.05c0.932-0.388,1.941-0.658,2.974-0.992
							c1.037-0.316,2.111-0.66,3.243-0.904c1.127-0.256,2.286-0.545,3.488-0.755c1.205-0.202,2.438-0.385,3.7-0.555
							c1.268-0.12,2.56-0.227,3.871-0.308c1.312-0.024,2.647-0.075,3.989-0.031c2.687,0.091,5.419,0.344,8.113,0.834l2.017,0.388
							l1.991,0.491c1.334,0.291,2.611,0.769,3.899,1.16c2.54,0.888,4.991,1.904,7.249,3.102c2.28,1.151,4.364,2.476,6.269,3.806
							c1.905,1.338,3.591,2.749,5.09,4.096c1.472,1.381,2.767,2.693,3.828,3.935c1.066,1.234,1.936,2.354,2.602,3.314
							c0.681,0.946,1.142,1.742,1.462,2.274C427.703,170.754,427.844,171.056,427.844,171.056z"/>
					</g>
				</g>
			</g>
		</g>
	</g>
	<g>
		<g>
			<g>
				<path fill="#F2AF1A" d="M185.028,284.623c2.982-2.453,4.535-5.775,4.535-9.785c0-1.576-0.264-3.101-0.785-4.527
					c-0.521-1.426-1.286-2.746-2.28-3.925c-0.982-1.166-2.131-2.145-3.399-2.901c-1.497-0.908-3.201-1.528-5.067-1.843
					c-1.718-0.291-3.758-0.438-6.062-0.438h-14.926c-2.551,0-4.497,0.653-5.786,1.942c-1.288,1.288-1.941,3.255-1.941,5.848v34.628
					c0,2.531,0.631,4.477,1.877,5.782c1.271,1.333,3.238,2.009,5.851,2.009h14.077c2.509,0,4.745-0.128,6.649-0.381
					c1.995-0.262,3.802-0.728,5.401-1.397c2.613-1.148,4.717-2.947,6.253-5.353c1.531-2.391,2.307-5.108,2.307-8.076
					C191.731,292.458,190.466,287.708,185.028,284.623z M178.13,295.516c0,1.42,0,4.746-7.386,4.746h-7.952v-9.306h7.638
					c2.789,0,4.934,0.431,6.203,1.243C177.276,292.613,178.13,293.405,178.13,295.516z M162.792,280.12v-7.766h5.5
					c3.83,0,5.76,0.518,6.704,0.956c0.384,0.177,1.281,0.591,1.281,2.753c0,0.717-0.163,1.337-0.535,1.967
					c-0.425,0.783-0.986,1.274-1.767,1.544c-0.717,0.25-2.115,0.546-4.709,0.546H162.792z"/>
				<path fill="#F2AF1A" d="M223.22,273.177c-1.847,0-3.447,0.674-4.63,1.95c-1.16,1.252-1.746,3.016-1.746,5.242v10.433
					c0,5.2-0.404,6.78-0.56,7.171c-0.43,1.016-1.099,1.817-2.045,2.453c-0.937,0.63-1.894,0.936-2.93,0.936
					c-0.975,0-1.683-0.207-2.165-0.631c-0.551-0.484-0.933-1.177-1.166-2.118c-0.293-1.181-0.441-2.7-0.441-4.513v-13.731
					c0-2.227-0.587-3.99-1.746-5.243c-1.184-1.275-2.797-1.949-4.661-1.949c-1.854,0-3.446,0.673-4.608,1.944
					c-1.132,1.238-1.706,3.004-1.706,5.248v17c0,3.824,0.617,6.738,1.895,8.918c1.096,1.835,2.657,3.29,4.638,4.324
					c1.937,1.012,4.135,1.524,6.537,1.524c1.923,0,3.679-0.25,5.218-0.743c1.566-0.502,3.029-1.275,4.349-2.302
					c0.182-0.142,0.364-0.288,0.543-0.439c0.264,0.589,0.608,1.12,1.03,1.589c1.154,1.28,2.691,1.958,4.446,1.958
					c1.749,0,3.274-0.658,4.406-1.903c1.099-1.205,1.656-2.913,1.656-5.07v-24.855c0-2.242-0.575-4.008-1.706-5.245
					C226.665,273.849,225.071,273.177,223.22,273.177z"/>
				<path fill="#F2AF1A" d="M275.727,300.892c-0.629,0-1.424,0.101-2.431,0.31c-0.894,0.184-1.375,0.224-1.622,0.224
					c-0.284,0-0.439-0.033-0.508-0.053c-0.092-0.132-0.155-0.324-0.188-0.58c-0.082-0.628-0.125-1.579-0.125-2.826v-13.708
					c1.82-0.043,3.258-0.342,4.378-0.908c1.614-0.816,2.504-2.333,2.504-4.27c0-1.485-0.569-2.783-1.643-3.754
					c-1.028-0.926-2.431-1.397-4.169-1.397h-1.07v-3.772c0-1.597-0.089-2.824-0.275-3.753c-0.243-1.217-0.826-2.262-1.737-3.108
					c-1.272-1.18-2.739-1.777-4.364-1.777c-1.142,0-2.2,0.278-3.149,0.832c-0.941,0.552-1.683,1.287-2.184,2.162
					c-0.49,0.83-0.79,1.802-0.892,2.89c-0.081,0.856-0.119,1.982-0.119,3.445v3.147c-1.282,0.156-2.35,0.587-3.18,1.29
					c-0.335,0.283-0.618,0.6-0.86,0.939c-0.221-0.322-0.478-0.624-0.781-0.898c-1.028-0.926-2.431-1.397-4.168-1.397h-1.071v-3.772
					c0-1.597-0.09-2.824-0.275-3.753c-0.243-1.217-0.827-2.262-1.738-3.108c-1.27-1.18-2.738-1.777-4.362-1.777
					c-1.143,0-2.201,0.278-3.149,0.832c-0.943,0.552-1.684,1.287-2.184,2.162c-0.491,0.83-0.792,1.802-0.894,2.89
					c-0.079,0.856-0.118,1.982-0.118,3.445v3.147c-1.283,0.156-2.35,0.587-3.179,1.29c-1.148,0.972-1.756,2.284-1.756,3.795
					c0,1.488,0.574,2.791,1.656,3.768c0.848,0.767,1.947,1.224,3.278,1.367v14.442c0,2.872,0.234,5.135,0.715,6.918
					c0.564,2.091,1.771,3.752,3.589,4.936c1.742,1.136,4.106,1.688,7.226,1.688c3.175,0,5.6-0.427,7.411-1.309
					c2.21-1.073,3.429-2.862,3.429-5.036c0-1.362-0.499-2.58-1.441-3.524c-0.942-0.941-2.095-1.438-3.333-1.438
					c-0.63,0-1.426,0.101-2.432,0.31c-0.895,0.184-1.375,0.224-1.621,0.224c-0.285,0-0.439-0.033-0.508-0.053
					c-0.094-0.132-0.155-0.324-0.189-0.58c-0.082-0.628-0.124-1.579-0.124-2.826v-13.708c1.821-0.043,3.258-0.342,4.379-0.908
					c0.678-0.343,1.218-0.816,1.63-1.386c0.22,0.316,0.474,0.614,0.773,0.884c0.848,0.767,1.946,1.224,3.278,1.367v14.442
					c0,2.872,0.234,5.135,0.715,6.918c0.563,2.091,1.77,3.752,3.588,4.936c1.744,1.136,4.107,1.688,7.227,1.688
					c3.175,0,5.6-0.427,7.411-1.309c2.21-1.073,3.428-2.862,3.428-5.036c0-1.362-0.498-2.58-1.44-3.524
					C278.119,301.388,276.966,300.892,275.727,300.892z"/>
				<path fill="#F2AF1A" d="M314.658,289.64c0-2.657-0.685-5.29-2.034-7.824c-1.371-2.572-3.445-4.691-6.166-6.295
					c-2.711-1.598-5.967-2.407-9.678-2.407c-2.822,0-5.443,0.464-7.793,1.383c-2.396,0.938-4.449,2.312-6.103,4.084
					c-1.637,1.755-2.895,3.879-3.741,6.309c-0.826,2.377-1.246,4.98-1.246,7.734c0,5.918,1.741,10.706,5.176,14.234
					c3.448,3.543,8.271,5.34,14.336,5.34c2.623,0,4.997-0.353,7.061-1.052c2.065-0.701,3.823-1.608,5.225-2.7
					c1.427-1.109,2.525-2.311,3.267-3.573c0.804-1.374,1.194-2.605,1.194-3.765c0-1.86-0.824-2.981-1.517-3.595
					c-0.732-0.647-1.615-1.043-2.636-1.183c0.614-0.176,1.172-0.395,1.682-0.657C313.041,294.974,314.658,293.357,314.658,289.64z
					 M305.897,297.336l-0.071,0.064c-1.054,0.99-1.911,1.776-2.554,2.338c-0.591,0.518-1.251,1.013-1.957,1.468
					c-0.621,0.398-1.263,0.696-1.907,0.878c-0.664,0.188-1.421,0.283-2.249,0.283c-1.161,0-2.186-0.273-3.137-0.839
					c-0.935-0.558-1.676-1.384-2.264-2.53c-0.332-0.645-0.579-1.357-0.737-2.134h14.496c0.382,0,0.75-0.008,1.106-0.024
					C306.361,296.978,306.119,297.145,305.897,297.336z M301.903,287.851h-10.706c0.346-1.302,0.865-2.329,1.554-3.069
					c0.985-1.062,2.177-1.555,3.746-1.555c1.66,0,2.94,0.501,3.913,1.533C301.096,285.487,301.597,286.522,301.903,287.851z"/>
				<path fill="#F2AF1A" d="M341.744,274.769c-1.991-1.057-4.084-1.592-6.219-1.592c-2.292,0-4.192,0.615-5.648,1.832
					c-0.304,0.252-0.603,0.53-0.897,0.832c-0.085-0.148-0.176-0.291-0.272-0.428c-0.713-1.021-2.121-2.236-4.778-2.236
					c-1.879,0-6.25,0.765-6.25,7.853v23.882c0,2.239,0.582,4.019,1.73,5.286c1.185,1.309,2.77,2.001,4.584,2.001
					c1.819,0,3.417-0.678,4.62-1.957c1.185-1.262,1.788-3.056,1.788-5.33v-7.165c0-2.505,0.081-4.645,0.242-6.359
					c0.151-1.622,0.425-3.022,0.811-4.164c0.312-0.923,0.722-1.599,1.214-2.008c0.797-0.661,2.232-0.699,4.312-0.03
					c1.754,0.565,2.433,0.681,2.911,0.681c1.362,0,2.663-0.549,3.761-1.584c1.137-1.07,1.737-2.488,1.737-4.1
					C345.39,278.595,344.757,276.369,341.744,274.769z"/>
				<path fill="#F2AF1A" d="M376.124,272.543c2.015,0,3.6-0.517,4.712-1.531c1.148-1.051,1.758-2.487,1.758-4.154
					c0-1.646-0.609-3.072-1.758-4.121c-1.112-1.017-2.697-1.532-4.712-1.532h-21.996c-1.638,0-2.982,0.251-4.111,0.769
					c-1.307,0.596-2.278,1.558-2.887,2.858c-0.533,1.138-0.793,2.499-0.793,4.163v35.445c0,2.434,0.623,4.345,1.853,5.676
					c1.255,1.362,2.949,2.083,4.899,2.083c1.924,0,3.605-0.712,4.862-2.057c1.235-1.324,1.86-3.242,1.86-5.702v-13.107h13.294
					c1.918,0,3.445-0.49,4.547-1.462c1.156-1.021,1.769-2.439,1.769-4.097c0-1.647-0.6-3.062-1.73-4.094
					c-1.093-0.994-2.636-1.498-4.585-1.498h-13.294v-7.64H376.124z"/>
				<path fill="#F2AF1A" d="M416.814,298.241c0.021-1.719,0.037-3.283,0.047-4.691c0.011-1.406,0.016-3.118,0.016-5.136
					c0-3.521-0.498-6.314-1.526-8.536c-1.112-2.407-3.016-4.182-5.662-5.272c-2.432-1.005-5.6-1.492-9.683-1.492
					c-3.625,0-6.732,0.518-9.234,1.535c-2.605,1.062-4.58,2.472-5.871,4.195c-1.339,1.784-2.019,3.682-2.019,5.642
					c0,1.559,0.608,2.918,1.755,3.928c1.072,0.944,2.41,1.443,3.869,1.443c0.079,0,0.181,0,0.299-0.002
					c-1.875,0.742-3.449,1.816-4.7,3.208c-1.833,2.039-2.762,4.524-2.762,7.386c0,2.115,0.556,4.103,1.65,5.913
					c1.096,1.81,2.665,3.256,4.664,4.298c1.956,1.021,4.229,1.539,6.755,1.539c2.671,0,5.132-0.46,7.315-1.37
					c1.527-0.634,3.1-1.503,4.694-2.591c0.62,0.853,1.224,1.561,1.824,2.14c1.255,1.208,2.615,1.821,4.046,1.821
					c1.557,0,2.962-0.536,4.175-1.596c1.612-1.408,1.95-2.934,1.95-3.965c0-0.526-0.105-1.41-0.893-3.982
					C417.053,301.112,416.814,299.618,416.814,298.241z M394.611,298.47c0.605-0.508,1.205-0.834,1.831-0.998
					c0.892-0.232,2.536-0.605,4.891-1.109c1.096-0.234,2.07-0.462,2.936-0.685c-0.138,2.27-0.561,3.326-0.847,3.806
					c-0.473,0.827-1.23,1.503-2.312,2.062c-1.147,0.597-2.372,0.885-3.744,0.885c-1.061,0-1.865-0.267-2.459-0.814
					c-0.561-0.522-0.812-1.075-0.812-1.797C394.095,299.012,394.356,298.685,394.611,298.47z M392.18,288.535
					c0.244-0.291,0.699-0.879,1.819-2.611c0.603-0.932,1.286-1.601,2.089-2.045c0.54-0.298,1.658-0.652,3.917-0.652
					c2.047,0,3.08,0.398,3.363,0.77c0.271,0.355,0.59,1.008,0.786,2.204c-1.148,0.317-2.24,0.6-3.264,0.844
					c-1.501,0.355-3.344,0.759-5.479,1.192c-1.811,0.37-3.062,0.631-3.736,0.779C391.855,288.877,392.024,288.719,392.18,288.535z"
					/>
				<path fill="#F2AF1A" d="M450.627,293.694c-1.383,0-2.633,0.466-3.613,1.346c-0.783,0.702-1.502,1.65-2.108,2.771
					c-0.773,1.34-1.646,2.33-2.586,2.942c-0.892,0.579-1.966,0.86-3.288,0.86c-0.983,0-1.851-0.181-2.652-0.549
					c-0.775-0.357-1.421-0.871-1.976-1.571c-0.587-0.741-1.046-1.669-1.366-2.757c-0.341-1.156-0.512-2.455-0.512-3.861
					c0-2.946,0.634-5.249,1.885-6.847c1.16-1.483,2.59-2.175,4.496-2.175c1.318,0,2.384,0.277,3.167,0.821
					c0.92,0.643,1.842,1.659,2.784,3.091c0.711,0.988,1.363,1.71,1.999,2.203c0.841,0.654,1.866,0.986,3.048,0.986
					c1.602,0,3.051-0.562,4.193-1.625c1.182-1.1,1.806-2.525,1.806-4.122c0-1.374-0.439-2.82-1.305-4.299
					c-0.81-1.379-1.97-2.678-3.451-3.857c-1.463-1.168-3.253-2.125-5.319-2.85c-2.067-0.725-4.354-1.09-6.797-1.09
					c-3.931,0-7.386,0.837-10.268,2.488c-2.924,1.677-5.187,4.077-6.728,7.135c-1.503,2.982-2.265,6.435-2.265,10.265
					c0,5.727,1.696,10.391,5.042,13.863c3.365,3.498,8.043,5.271,13.903,5.271c2.707,0,5.193-0.375,7.387-1.114
					c2.225-0.75,4.116-1.772,5.62-3.032c1.511-1.27,2.662-2.646,3.423-4.095c0.795-1.51,1.195-2.986,1.195-4.39
					c0-1.41-0.519-2.722-1.543-3.901C453.717,294.353,452.273,293.694,450.627,293.694z"/>
				<path fill="#F2AF1A" d="M494.836,289.64c0-2.657-0.685-5.29-2.034-7.824c-1.37-2.572-3.445-4.691-6.165-6.295
					c-2.712-1.598-5.969-2.407-9.678-2.407c-2.822,0-5.445,0.464-7.794,1.383c-2.396,0.938-4.449,2.312-6.103,4.084
					c-1.636,1.755-2.896,3.879-3.74,6.309c-0.827,2.377-1.246,4.98-1.246,7.734c0,5.918,1.741,10.706,5.176,14.234
					c3.448,3.543,8.271,5.34,14.335,5.34c2.623,0,4.997-0.353,7.06-1.052c2.065-0.701,3.824-1.608,5.227-2.7
					c1.426-1.109,2.523-2.311,3.266-3.573c0.804-1.374,1.194-2.605,1.194-3.765c0-1.86-0.824-2.981-1.517-3.595
					c-0.732-0.647-1.615-1.043-2.636-1.183c0.613-0.176,1.172-0.395,1.68-0.657C493.219,294.974,494.836,293.357,494.836,289.64z
					 M486.075,297.336l-0.073,0.064c-1.051,0.99-1.91,1.776-2.553,2.338c-0.592,0.518-1.25,1.013-1.957,1.468
					c-0.62,0.398-1.263,0.696-1.907,0.878c-0.663,0.188-1.419,0.283-2.249,0.283c-1.16,0-2.186-0.273-3.135-0.839
					c-0.937-0.558-1.678-1.384-2.266-2.53c-0.332-0.645-0.578-1.357-0.737-2.134h14.497c0.381,0,0.75-0.008,1.105-0.024
					C486.54,296.978,486.298,297.145,486.075,297.336z M482.082,287.851h-10.707c0.346-1.302,0.865-2.329,1.555-3.069
					c0.985-1.062,2.177-1.555,3.747-1.555c1.659,0,2.938,0.501,3.912,1.533C481.273,285.487,481.774,286.522,482.082,287.851z"/>
				<path fill="#F2AF1A" d="M527.998,293.515c-1.054-1.483-2.583-2.768-4.547-3.816c-1.831-0.979-4.189-1.824-7.009-2.514
					c-2.189-0.53-3.933-0.987-5.181-1.354c-1.026-0.304-1.827-0.67-2.376-1.09c-0.295-0.225-0.318-0.377-0.318-0.569
					c0-0.103,0-0.346,0.589-0.725c0.682-0.438,1.604-0.659,2.746-0.659c1.414,0,2.169,0.261,2.553,0.48
					c0.647,0.37,1.199,0.855,1.697,1.498c0.898,1.134,1.694,1.98,2.439,2.583c0.993,0.809,2.188,1.22,3.554,1.22
					c1.76,0,3.187-0.51,4.242-1.516c1.067-1.017,1.632-2.372,1.632-3.918c0-1.307-0.426-2.621-1.266-3.902
					c-0.772-1.177-1.884-2.245-3.302-3.174c-1.366-0.895-3.062-1.609-5.043-2.126c-1.934-0.501-4.122-0.756-6.506-0.756
					c-3.115,0-5.84,0.521-8.103,1.552c-2.346,1.068-4.163,2.546-5.402,4.393c-1.255,1.868-1.891,3.895-1.891,6.024
					c0,2.419,0.724,4.507,2.151,6.204c1.311,1.56,3.064,2.825,5.205,3.755c1.953,0.85,4.489,1.664,7.555,2.424
					c2.985,0.717,4.395,1.341,5.051,1.738c0.371,0.225,0.714,0.564,0.714,1.528c0,0.342-0.477,0.725-0.762,0.922
					c-0.739,0.515-1.764,0.776-3.043,0.776c-1.716,0-3.038-0.278-3.927-0.823c-0.923-0.568-1.745-1.475-2.431-2.664
					c-0.554-1.003-1.143-1.783-1.799-2.381c-0.874-0.797-2.04-1.202-3.47-1.202c-1.568,0-2.954,0.558-4.011,1.613
					c-1.055,1.054-1.612,2.398-1.612,3.884c0,1.871,0.667,3.719,1.979,5.49c1.264,1.707,3.188,3.123,5.719,4.206
					c2.448,1.049,5.388,1.582,8.733,1.582c3.466,0,6.483-0.485,8.964-1.444c2.64-1.018,4.681-2.565,6.07-4.596
					c1.386-2.029,2.089-4.468,2.089-7.249C529.684,296.909,529.116,295.094,527.998,293.515z"/>
			</g>
		</g>
		<g>
			<path fill="#FEDD44" d="M171.121,309.342h-14.077c-2.032,0-3.483-0.456-4.353-1.367c-0.869-0.911-1.305-2.361-1.305-4.353
				v-34.628c0-2.032,0.444-3.492,1.335-4.384c0.892-0.89,2.332-1.335,4.322-1.335h14.926c2.199,0,4.104,0.135,5.718,0.407
				c1.613,0.273,3.06,0.797,4.337,1.572c1.089,0.648,2.054,1.472,2.892,2.466c0.837,0.997,1.477,2.096,1.916,3.3
				c0.44,1.205,0.66,2.477,0.66,3.817c0,4.609-2.304,7.981-6.913,10.119c6.054,1.928,9.081,5.677,9.081,11.249
				c0,2.576-0.66,4.897-1.979,6.96c-1.321,2.065-3.102,3.588-5.344,4.573c-1.403,0.587-3.016,1-4.838,1.24
				C175.678,309.22,173.551,309.342,171.121,309.342z M160.721,270.282v11.91h8.546c2.325,0,4.121-0.221,5.39-0.661
				c1.267-0.44,2.235-1.277,2.907-2.513c0.523-0.88,0.784-1.865,0.784-2.955c0-2.325-0.827-3.869-2.482-4.633
				c-1.655-0.766-4.18-1.148-7.573-1.148H160.721z M170.43,288.885h-9.709v13.449h10.023c6.306,0,9.458-2.274,9.458-6.818
				c0-2.326-0.817-4.012-2.451-5.06C176.117,289.408,173.676,288.885,170.43,288.885z"/>
			<path fill="#FEDD44" d="M219.418,305.288v-1.101c-1.027,1.299-2.107,2.388-3.237,3.269c-1.132,0.88-2.367,1.534-3.708,1.963
				c-1.34,0.43-2.87,0.645-4.587,0.645c-2.074,0-3.935-0.43-5.578-1.288c-1.643-0.858-2.917-2.042-3.817-3.551
				c-1.067-1.821-1.602-4.441-1.602-7.855v-17c0-1.718,0.388-3.001,1.163-3.85c0.773-0.848,1.802-1.272,3.079-1.272
				c1.298,0,2.345,0.43,3.141,1.289c0.797,0.859,1.195,2.137,1.195,3.833v13.731c0,1.991,0.167,3.661,0.503,5.013
				c0.334,1.351,0.938,2.409,1.806,3.173c0.87,0.765,2.049,1.148,3.535,1.148c1.446,0,2.808-0.43,4.086-1.29
				c1.276-0.858,2.21-1.978,2.797-3.362c0.481-1.215,0.722-3.875,0.722-7.98v-10.433c0-1.696,0.398-2.974,1.195-3.833
				c0.796-0.859,1.832-1.289,3.11-1.289c1.278,0,2.305,0.425,3.079,1.272c0.775,0.849,1.163,2.132,1.163,3.85v24.855
				c0,1.634-0.372,2.859-1.115,3.676c-0.745,0.817-1.703,1.227-2.875,1.227c-1.174,0-2.143-0.425-2.907-1.273
				C219.801,308.006,219.418,306.817,219.418,305.288z"/>
			<path fill="#FEDD44" d="M236.48,276.002h0.942v-5.154c0-1.382,0.037-2.467,0.111-3.252c0.071-0.786,0.276-1.461,0.612-2.027
				c0.334-0.586,0.816-1.062,1.445-1.429c0.628-0.367,1.329-0.551,2.104-0.551c1.09,0,2.073,0.408,2.953,1.226
				c0.587,0.545,0.96,1.211,1.117,1.995c0.156,0.786,0.235,1.903,0.235,3.348v5.845h3.142c1.214,0,2.142,0.288,2.781,0.863
				c0.638,0.576,0.958,1.315,0.958,2.215c0,1.152-0.455,1.959-1.367,2.421c-0.91,0.461-2.215,0.691-3.911,0.691h-1.602v15.773
				c0,1.341,0.046,2.372,0.142,3.096c0.094,0.724,0.346,1.309,0.754,1.759c0.408,0.45,1.073,0.677,1.996,0.677
				c0.501,0,1.182-0.089,2.041-0.268c0.859-0.179,1.529-0.268,2.012-0.268c0.69,0,1.314,0.278,1.869,0.832
				c0.556,0.556,0.834,1.243,0.834,2.06c0,1.383-0.754,2.44-2.264,3.174c-1.508,0.733-3.676,1.1-6.505,1.1
				c-2.682,0-4.712-0.45-6.096-1.352c-1.383-0.9-2.289-2.146-2.718-3.738c-0.431-1.593-0.645-3.719-0.645-6.38v-16.465h-1.132
				c-1.236,0-2.179-0.293-2.827-0.882c-0.649-0.585-0.975-1.328-0.975-2.23c0-0.899,0.341-1.639,1.022-2.215
				C234.191,276.29,235.181,276.002,236.48,276.002z"/>
			<path fill="#FEDD44" d="M259.261,276.002h0.944v-5.154c0-1.382,0.035-2.467,0.109-3.252c0.072-0.786,0.277-1.461,0.612-2.027
				c0.335-0.586,0.816-1.062,1.445-1.429c0.629-0.367,1.331-0.551,2.104-0.551c1.09,0,2.075,0.408,2.954,1.226
				c0.587,0.545,0.959,1.211,1.116,1.995c0.158,0.786,0.235,1.903,0.235,3.348v5.845h3.142c1.215,0,2.144,0.288,2.781,0.863
				c0.64,0.576,0.958,1.315,0.958,2.215c0,1.152-0.455,1.959-1.365,2.421c-0.912,0.461-2.216,0.691-3.913,0.691h-1.603v15.773
				c0,1.341,0.047,2.372,0.143,3.096c0.094,0.724,0.345,1.309,0.753,1.759c0.41,0.45,1.074,0.677,1.996,0.677
				c0.503,0,1.183-0.089,2.042-0.268c0.859-0.179,1.528-0.268,2.011-0.268c0.691,0,1.314,0.278,1.871,0.832
				c0.554,0.556,0.832,1.243,0.832,2.06c0,1.383-0.754,2.44-2.263,3.174c-1.508,0.733-3.677,1.1-6.505,1.1
				c-2.682,0-4.713-0.45-6.095-1.352c-1.385-0.9-2.29-2.146-2.72-3.738c-0.43-1.593-0.643-3.719-0.643-6.38v-16.465h-1.132
				c-1.236,0-2.18-0.293-2.829-0.882c-0.648-0.585-0.974-1.328-0.974-2.23c0-0.899,0.341-1.639,1.022-2.215
				C256.972,276.29,257.962,276.002,259.261,276.002z"/>
			<path fill="#FEDD44" d="M305.517,294.793h-16.78c0.022,1.947,0.413,3.665,1.179,5.152c0.764,1.488,1.779,2.608,3.048,3.361
				c1.267,0.755,2.665,1.133,4.195,1.133c1.026,0,1.963-0.122,2.812-0.36c0.848-0.242,1.67-0.619,2.466-1.133
				c0.796-0.513,1.53-1.063,2.199-1.648c0.672-0.587,1.541-1.384,2.608-2.389c0.441-0.377,1.069-0.566,1.886-0.566
				c0.88,0,1.593,0.242,2.137,0.723c0.544,0.483,0.817,1.163,0.817,2.043c0,0.774-0.305,1.681-0.912,2.718
				c-0.608,1.037-1.523,2.032-2.749,2.984c-1.227,0.954-2.766,1.745-4.619,2.373c-1.854,0.628-3.985,0.943-6.395,0.943
				c-5.51,0-9.793-1.571-12.853-4.713c-3.059-3.144-4.587-7.405-4.587-12.79c0-2.534,0.378-4.886,1.132-7.055
				c0.754-2.167,1.854-4.026,3.299-5.577c1.445-1.55,3.227-2.739,5.342-3.566c2.115-0.827,4.463-1.242,7.038-1.242
				c3.352,0,6.227,0.708,8.626,2.121c2.397,1.415,4.194,3.242,5.39,5.484c1.193,2.242,1.792,4.523,1.792,6.85
				c0,2.157-0.619,3.556-1.855,4.193C309.496,294.474,307.758,294.793,305.517,294.793z M288.736,289.923h15.555
				c-0.211-2.935-1.001-5.127-2.373-6.584c-1.373-1.457-3.179-2.184-5.421-2.184c-2.136,0-3.891,0.738-5.263,2.215
				C289.862,284.847,289.028,287.031,288.736,289.923z"/>
			<path fill="#FEDD44" d="M328.329,297.746v7.165c0,1.739-0.409,3.042-1.226,3.911c-0.816,0.869-1.853,1.305-3.11,1.305
				c-1.237,0-2.253-0.441-3.049-1.32c-0.796-0.879-1.194-2.178-1.194-3.896v-23.882c0-3.853,1.393-5.782,4.18-5.782
				c1.425,0,2.451,0.45,3.08,1.352c0.628,0.9,0.974,2.232,1.036,3.99c1.026-1.759,2.079-3.09,3.157-3.99
				c1.08-0.901,2.52-1.352,4.322-1.352c1.801,0,3.551,0.45,5.248,1.352c1.695,0.9,2.544,2.095,2.544,3.583
				c0,1.047-0.361,1.911-1.084,2.592c-0.723,0.681-1.503,1.02-2.342,1.02c-0.314,0-1.073-0.191-2.277-0.581
				c-1.204-0.386-2.267-0.58-3.19-0.58c-1.256,0-2.282,0.329-3.078,0.99c-0.796,0.659-1.414,1.64-1.854,2.938
				c-0.439,1.299-0.743,2.844-0.909,4.635C328.413,292.985,328.329,295.17,328.329,297.746z"/>
			<path fill="#FEDD44" d="M376.124,270.471h-18.383v11.784h15.365c1.425,0,2.487,0.319,3.189,0.957
				c0.701,0.64,1.054,1.493,1.054,2.562c0,1.068-0.357,1.916-1.068,2.544c-0.713,0.63-1.772,0.943-3.175,0.943h-15.365v15.178
				c0,1.928-0.435,3.356-1.304,4.288c-0.87,0.932-1.985,1.4-3.348,1.4c-1.381,0-2.507-0.473-3.377-1.415
				c-0.869-0.942-1.304-2.366-1.304-4.272v-35.445c0-1.34,0.198-2.435,0.597-3.284c0.398-0.848,1.021-1.466,1.869-1.854
				c0.849-0.388,1.934-0.581,3.253-0.581h21.996c1.486,0,2.592,0.329,3.314,0.989c0.723,0.659,1.086,1.525,1.086,2.593
				c0,1.09-0.363,1.965-1.086,2.624C378.716,270.142,377.61,270.471,376.124,270.471z"/>
			<path fill="#FEDD44" d="M406.949,305.288c-2.073,1.612-4.079,2.823-6.018,3.63c-1.938,0.805-4.111,1.209-6.521,1.209
				c-2.199,0-4.133-0.436-5.797-1.305c-1.666-0.869-2.949-2.048-3.849-3.534c-0.9-1.487-1.353-3.1-1.353-4.84
				c0-2.346,0.745-4.346,2.23-6.002c1.488-1.654,3.529-2.765,6.129-3.331c0.545-0.125,1.895-0.408,4.053-0.848
				c2.158-0.441,4.007-0.844,5.547-1.209c1.539-0.368,3.209-0.811,5.011-1.337c-0.105-2.263-0.56-3.922-1.365-4.98
				c-0.807-1.058-2.479-1.586-5.013-1.586c-2.18,0-3.818,0.304-4.918,0.91c-1.101,0.609-2.042,1.52-2.827,2.735
				c-0.786,1.215-1.342,2.016-1.666,2.404c-0.325,0.386-1.022,0.58-2.089,0.58c-0.965,0-1.797-0.31-2.499-0.927
				c-0.702-0.618-1.053-1.409-1.053-2.373c0-1.509,0.535-2.974,1.604-4.4c1.067-1.425,2.732-2.597,4.995-3.518
				c2.262-0.924,5.079-1.385,8.453-1.385c3.771,0,6.734,0.445,8.892,1.336c2.158,0.892,3.682,2.3,4.572,4.227
				c0.891,1.929,1.336,4.484,1.336,7.668c0,2.012-0.006,3.719-0.016,5.12c-0.011,1.404-0.025,2.966-0.048,4.684
				c0,1.612,0.267,3.295,0.802,5.043c0.534,1.749,0.802,2.876,0.802,3.377c0,0.882-0.413,1.682-1.24,2.404
				c-0.828,0.724-1.767,1.085-2.814,1.085c-0.881,0-1.751-0.415-2.608-1.241C408.824,308.059,407.912,306.858,406.949,305.288z
				 M406.383,292.876c-1.257,0.461-3.084,0.946-5.482,1.462c-2.398,0.512-4.06,0.889-4.981,1.129
				c-0.921,0.241-1.802,0.714-2.639,1.416c-0.838,0.701-1.258,1.68-1.258,2.936c0,1.3,0.492,2.404,1.477,3.316
				c0.985,0.911,2.274,1.367,3.866,1.367c1.697,0,3.262-0.373,4.698-1.116c1.434-0.743,2.486-1.703,3.157-2.875
				c0.773-1.3,1.162-3.435,1.162-6.411V292.876z"/>
			<path fill="#FEDD44" d="M454.272,299.505c0,1.068-0.319,2.211-0.957,3.426c-0.641,1.215-1.613,2.372-2.924,3.472
				c-1.31,1.101-2.959,1.985-4.949,2.656s-4.231,1.005-6.725,1.005c-5.301,0-9.438-1.545-12.413-4.636
				c-2.974-3.088-4.461-7.231-4.461-12.427c0-3.52,0.681-6.63,2.042-9.332c1.362-2.703,3.332-4.793,5.908-6.269
				c2.576-1.477,5.657-2.217,9.238-2.217c2.221,0,4.259,0.326,6.112,0.976c1.854,0.649,3.425,1.486,4.713,2.514
				c1.289,1.026,2.273,2.121,2.955,3.283c0.681,1.163,1.021,2.246,1.021,3.253c0,1.025-0.383,1.895-1.148,2.608
				c-0.764,0.711-1.691,1.067-2.779,1.067c-0.713,0-1.305-0.184-1.775-0.549c-0.472-0.367-1.001-0.959-1.587-1.776
				c-1.049-1.592-2.143-2.786-3.284-3.583c-1.143-0.796-2.592-1.192-4.352-1.192c-2.535,0-4.577,0.989-6.128,2.969
				c-1.55,1.979-2.325,4.688-2.325,8.123c0,1.613,0.198,3.095,0.598,4.446c0.397,1.35,0.974,2.503,1.727,3.457
				c0.755,0.952,1.666,1.675,2.733,2.167c1.069,0.493,2.242,0.738,3.52,0.738c1.717,0,3.189-0.397,4.415-1.194
				c1.227-0.795,2.31-2.011,3.253-3.645c0.522-0.963,1.088-1.718,1.696-2.262c0.608-0.545,1.352-0.818,2.232-0.818
				c1.047,0,1.917,0.399,2.607,1.194C453.927,297.758,454.272,298.605,454.272,299.505z"/>
			<path fill="#FEDD44" d="M485.695,294.793h-16.78c0.02,1.947,0.412,3.665,1.178,5.152c0.765,1.488,1.78,2.608,3.049,3.361
				c1.267,0.755,2.665,1.133,4.194,1.133c1.026,0,1.964-0.122,2.814-0.36c0.848-0.242,1.67-0.619,2.466-1.133
				c0.796-0.513,1.529-1.063,2.199-1.648c0.671-0.587,1.54-1.384,2.608-2.389c0.439-0.377,1.068-0.566,1.886-0.566
				c0.881,0,1.592,0.242,2.136,0.723c0.545,0.483,0.817,1.163,0.817,2.043c0,0.774-0.304,1.681-0.911,2.718
				c-0.607,1.037-1.524,2.032-2.749,2.984c-1.226,0.954-2.766,1.745-4.619,2.373c-1.854,0.628-3.986,0.943-6.395,0.943
				c-5.509,0-9.794-1.571-12.852-4.713c-3.06-3.144-4.587-7.405-4.587-12.79c0-2.534,0.376-4.886,1.131-7.055
				c0.754-2.167,1.854-4.026,3.299-5.577c1.446-1.55,3.227-2.739,5.343-3.566c2.115-0.827,4.462-1.242,7.038-1.242
				c3.351,0,6.226,0.708,8.626,2.121c2.399,1.415,4.195,3.242,5.389,5.484c1.193,2.242,1.791,4.523,1.791,6.85
				c0,2.157-0.618,3.556-1.853,4.193C489.674,294.474,487.935,294.793,485.695,294.793z M468.915,289.923h15.554
				c-0.21-2.935-1.001-5.127-2.372-6.584c-1.373-1.457-3.18-2.184-5.42-2.184c-2.139,0-3.892,0.738-5.265,2.215
				C470.041,284.847,469.208,287.031,468.915,289.923z"/>
			<path fill="#FEDD44" d="M527.613,298.909c0,2.366-0.576,4.393-1.729,6.08c-1.152,1.687-2.854,2.964-5.105,3.833
				c-2.253,0.869-4.991,1.305-8.218,1.305c-3.079,0-5.719-0.473-7.918-1.415c-2.2-0.942-3.823-2.121-4.87-3.534
				c-1.049-1.414-1.572-2.833-1.572-4.258c0-0.943,0.337-1.748,1.006-2.42c0.671-0.67,1.519-1.005,2.546-1.005
				c0.901,0,1.591,0.22,2.073,0.659c0.482,0.44,0.942,1.058,1.383,1.854c0.88,1.529,1.933,2.672,3.157,3.426
				c1.226,0.753,2.896,1.13,5.013,1.13c1.718,0,3.127-0.382,4.227-1.148c1.1-0.764,1.65-1.638,1.65-2.622
				c0-1.509-0.571-2.609-1.714-3.3c-1.141-0.691-3.022-1.352-5.639-1.979c-2.955-0.733-5.359-1.504-7.213-2.31
				c-1.854-0.808-3.337-1.871-4.445-3.19c-1.111-1.32-1.666-2.943-1.666-4.87c0-1.717,0.513-3.341,1.539-4.871
				c1.026-1.528,2.54-2.749,4.54-3.66c2.001-0.911,4.415-1.367,7.245-1.367c2.22,0,4.214,0.231,5.984,0.69
				c1.771,0.462,3.247,1.08,4.431,1.853c1.183,0.776,2.083,1.636,2.702,2.578c0.619,0.941,0.928,1.865,0.928,2.766
				c0,0.984-0.33,1.79-0.99,2.42c-0.659,0.628-1.599,0.941-2.812,0.941c-0.881,0-1.629-0.251-2.247-0.754
				c-0.617-0.502-1.325-1.257-2.12-2.263c-0.65-0.837-1.414-1.508-2.294-2.011c-0.88-0.503-2.073-0.753-3.581-0.753
				c-1.552,0-2.84,0.328-3.866,0.988c-1.026,0.66-1.539,1.482-1.539,2.467c0,0.901,0.376,1.641,1.131,2.216
				c0.755,0.576,1.77,1.054,3.047,1.431c1.278,0.376,3.038,0.837,5.28,1.381c2.66,0.651,4.834,1.426,6.521,2.326
				c1.687,0.9,2.963,1.964,3.833,3.189C527.177,295.939,527.613,297.337,527.613,298.909z"/>
		</g>
	</g>
</g>
</svg>
